<?xml version="1.0" standalone="no"?>
<!--
    Copyright (C) 2022 Dynamic Solutions

    Licensed under the Apache License, Version 2.0 (the "License");
    you may not use this file except in compliance with the License.
    You may obtain a copy of the License at

        http://www.apache.org/licenses/LICENSE-2.0

    Unless required by applicable law or agreed to in writing, software
    distributed under the License is distributed on an "AS IS" BASIS,
    WITHOUT WARRANTIES OR CONDITIONS OF ANY KIND, either express or implied.
    See the License for the specific language governing permissions and
    limitations under the License.
-->
<svg width="52" height="60" viewBox="0 0 52 60" fill="none" xmlns="http://www.w3.org/2000/svg">
<path d="M50.9815 46.9184C51.0081 46.8369 51.0063 13.1387 50.9744 13.0607C50.9425 12.9845 51.4617 13.5073 43.0338 5.08714C42.9912 5.04462 42.9097 5.00741 42.8389 5.00741C7.68103 5.00741 9.10221 4.96488 8.9764 5.0836C8.61844 5.42381 1.0393 13.0235 1.0836 12.9757C1.0393 13.0235 1.00741 13.0997 1.00741 13.1635C1.00741 48.2757 0.964875 46.8954 1.0836 47.0212C1.35118 47.3029 8.94982 54.8902 8.97817 54.9186C9.02779 54.9647 9.104 54.993 9.16425 54.993C44.3504 54.993 42.8991 55.0338 43.0249 54.9186C43.0745 54.8725 50.8521 47.0938 50.9212 47.0212C50.9478 46.9893 50.9709 46.9468 50.9815 46.9184ZM5.13989 43.8725L1.555 46.3142V13.6845L5.13989 16.1261V43.8725ZM46.3121 43.4986L43.1064 41.3174V18.6901C43.1064 18.6901 45.5784 17.0015 46.3121 16.5V43.4986ZM14.4964 46.3992L9.59662 41.5034L12.7722 39.3417C13.1124 39.6819 16.2614 42.8306 16.6583 43.2275C15.8928 44.3491 15.3187 45.1926 14.4964 46.3992ZM42.5535 40.94L39.4701 38.842V21.1566L42.5571 19.0551C42.5571 29.6582 42.5518 35.2468 42.5482 38.1882C42.5482 39.6341 42.5482 40.4598 42.5535 40.94ZM42.4047 18.497C41.1767 19.3315 39.8086 20.2636 39.2309 20.6569C38.8907 20.3167 35.7417 17.168 35.3448 16.7711L37.5067 13.5994L42.4047 18.497ZM34.8433 16.5284H17.1598C16.2064 15.1321 16.6796 15.8249 15.0564 13.4435H36.9467C35.3359 15.8054 35.8037 15.1197 34.8433 16.5284ZM9.45307 38.2502C9.44953 35.3248 9.44425 29.7309 9.44425 19.0569L12.5312 21.1584V38.8438L9.44775 40.9418C9.45484 40.4651 9.45307 39.6553 9.45307 38.2502ZM12.7722 20.6569C12.1945 20.2636 10.8229 19.3298 9.60194 18.5005C11.0391 17.0918 6.84994 21.247 14.4946 13.5994L16.6566 16.7711C16.2614 17.1663 13.1124 20.3149 12.7722 20.6569ZM8.89489 18.6883V41.3121C7.80861 42.0226 11.0107 39.8751 5.6892 43.4986V16.5C11.0373 20.1466 7.81393 17.9813 8.89489 18.6883ZM17.1279 42.9192C15.712 41.5034 14.4964 40.2879 13.0805 38.8722V21.1247C14.4964 19.7089 15.712 18.4934 17.1279 17.0777H34.8752C36.2911 18.4934 37.5067 19.7089 38.9226 21.1247V38.8722C37.5067 40.2879 36.2911 41.5034 34.8752 42.9192H17.1279ZM35.343 43.2275C35.7399 42.8306 38.8889 39.6819 39.2291 39.3417L42.3994 41.4999C41.2316 42.6516 44.3274 39.5809 37.5049 46.3992C36.7819 45.3379 36.004 44.1968 35.343 43.2275ZM42.8707 18.1869L37.8203 13.1369L40.0602 9.84472L46.1579 15.9401C43.8135 17.5366 43.3563 17.8555 42.8707 18.1869ZM37.3206 12.896H14.6824L12.5011 9.69057H39.5003L37.3206 12.896ZM14.181 13.1369L9.13413 18.1833L5.84162 15.9401L11.9393 9.84472L14.181 13.1369ZM17.158 43.4685H34.8415C35.7949 44.8648 35.3217 44.1719 36.945 46.5534H15.0546C16.6654 44.1932 16.1976 44.8772 17.158 43.4685ZM46.8614 16.1244L50.4463 13.6827V46.3124L46.8614 43.8707V16.1244ZM39.8742 9.14128H12.1271L9.68345 5.5567H42.3179L39.8742 9.14128ZM5.84339 44.0585L9.13059 41.8206C9.39817 42.0988 9.967 42.6499 14.181 46.8617C13.5129 47.8451 13.8389 47.3632 11.9411 50.1539C9.77205 47.9851 8.15063 46.3656 5.84339 44.0585ZM14.6807 47.1027H37.3188L39.5003 50.3081H12.5011L14.6807 47.1027ZM40.0602 50.1539L37.8203 46.8617C40.303 44.381 41.6037 43.0858 42.2824 42.4107C42.5624 42.1307 42.7467 41.9482 42.869 41.8206L46.1562 44.0585C44.0261 46.1902 42.1938 48.0223 40.0602 50.1539ZM50.2922 13.1245L46.6204 15.6247C42.9398 11.9444 44.2033 13.2096 40.3757 9.38226L42.8796 5.71086C45.0362 7.8655 45.7947 8.62565 50.2922 13.1245ZM9.12349 5.71086C9.54879 6.33457 10.651 7.95232 11.6274 9.38226C7.94682 13.0625 9.2103 11.7974 5.38264 15.6247L1.71092 13.1245L9.12349 5.71086ZM5.38086 44.3739C9.21385 48.2048 7.79619 46.7891 11.6256 50.6164L9.12172 54.2913L1.70737 46.8759L5.38086 44.3739ZM9.68345 54.4437C10.5961 53.1041 11.234 52.1668 12.1271 50.8574H39.876C40.7549 52.1473 41.3981 53.0917 42.3196 54.4437H9.68345ZM42.8778 54.2896L40.3739 50.6146C44.2069 46.7837 42.7892 48.1995 46.6186 44.3722L50.2904 46.8723C49.1439 48.0223 44.1165 53.0528 42.8778 54.2896Z" fill="#1D1F31" stroke="#1D1F31" stroke-width="0.25"/>
</svg>
