<?xml version="1.0" standalone="no"?>
<!--
    Copyright (C) 2022 Dynamic Solutions

    Licensed under the Apache License, Version 2.0 (the "License");
    you may not use this file except in compliance with the License.
    You may obtain a copy of the License at

        http://www.apache.org/licenses/LICENSE-2.0

    Unless required by applicable law or agreed to in writing, software
    distributed under the License is distributed on an "AS IS" BASIS,
    WITHOUT WARRANTIES OR CONDITIONS OF ANY KIND, either express or implied.
    See the License for the specific language governing permissions and
    limitations under the License.
-->
<svg width="148" height="52" viewBox="0 0 148 52" fill="none" xmlns="http://www.w3.org/2000/svg">
<rect width="148" height="52" fill="white"/>
<path d="M7.56332 25.2344V25.8128C5.32288 25.8128 5.00072 26.4571 5.00072 27.3284C5.00072 28.6097 7.18259 32.7977 10.0966 40.5148C12.2492 35.536 15.2511 29.254 15.2511 27.6798C15.2511 26.5157 14.4677 25.9373 12.7764 25.8201V25.2417H19.095V25.8201C17.7844 26.0544 17.2353 26.4278 16.0418 28.9611C13.8893 33.5299 10.8581 39.9656 9.52553 43.9194H9.05694L2.18187 27.2698C1.80114 26.3107 1.13486 25.8128 0 25.8128V25.2344H7.56332Z" fill="#B1B1B1"/>
<path d="M25.5527 43.1066C27.9396 43.1066 28.2618 42.6966 28.291 40.4855C28.3496 36.7002 28.4082 32.6293 28.4082 28.434C28.4082 26.2228 28.0568 25.8128 25.8456 25.8128V25.2344H39.874L40.4817 28.5511H40.0131C38.6732 26.8891 37.8605 25.9299 35.1222 25.9299H32.6182C31.1612 25.9299 30.8976 26.0764 30.8976 27.0941V33.442H33.8921C36.3962 33.442 36.6305 33.0613 37.0624 30.9087H37.6994V37.2566H37.0624C36.7403 34.9869 36.2497 34.4304 34.1484 34.4304H30.8902V41.7668C30.8902 42.7552 31.3296 42.9895 32.75 42.9895H36.5939C39.3615 42.9895 39.9106 42.4623 41.7776 39.3506H42.3267C42.0339 40.1048 41.5726 42.5795 41.3383 43.6851H25.5381V43.1066H25.5527Z" fill="#B1B1B1"/>
<path d="M49.1287 43.1066C51.2227 43.1066 51.5741 42.6966 51.5741 40.4855C51.5741 36.1803 51.6913 32.5121 51.662 28.434C51.662 26.2228 51.3105 25.8128 49.5387 25.8128V25.2344H55.1837C59.8696 25.2344 63.0399 26.6621 63.0399 30.0081C63.0399 33.3541 59.5767 34.1961 58.7347 34.4011L63.5378 41.5032C64.2919 42.6381 65.0241 43.1066 66.0418 43.1066V43.6851H62.8129C62.5493 43.6851 62.2565 43.5972 61.6195 42.6088L56.6114 34.8404H54.0781V40.4855C54.0781 42.6966 54.4296 43.1066 56.6114 43.1066V43.6851H49.1287V43.1066ZM54.0781 34.1449C58.5004 34.1449 60.3675 33.2736 60.3675 29.9569C60.3675 27.2771 58.2442 25.9373 56.0037 25.9373C54.371 25.9373 54.0855 26.2887 54.0855 27.4529V34.1449H54.0781Z" fill="#B1B1B1"/>
<path d="M92.1215 34.4596C92.1215 39.9582 88.2484 43.9193 82.4862 43.9193C76.724 43.9193 72.8508 39.9582 72.8508 34.4596C72.8508 28.961 76.724 25 82.4862 25C88.2484 25 92.1215 28.961 92.1215 34.4596ZM75.5306 34.4596C75.5306 39.9582 77.7124 43.3335 82.4862 43.3335C87.2599 43.3335 89.4418 39.9582 89.4418 34.4596C89.4418 28.961 87.2599 25.5857 82.4862 25.5857C77.7124 25.5857 75.5306 28.961 75.5306 34.4596Z" fill="#B1B1B1"/>
<path d="M99.5457 43.1067C101.405 42.9016 102.05 42.6088 102.05 39.3506V28.4925C102.05 26.34 101.061 25.9885 99.0845 25.8128V25.2344H103.683C105.952 27.9727 115.47 38.1572 116.869 39.6728C116.957 36.2389 117.015 31.2308 117.015 28.4706C117.015 26.7573 116.488 26.0837 114.306 25.8201V25.2417H120.566V25.8201C118.472 26.0837 117.887 26.7793 117.887 28.4706C117.887 29.5469 117.652 38.6258 117.506 43.6924H116.979C115.463 41.3055 107.519 33.7422 103.009 28.0313H102.921V39.3506C102.921 42.6088 103.331 42.8724 105.454 43.1067V43.6851H99.5457V43.1067Z" fill="#B1B1B1"/>
<path d="M132.896 36.4731L131.674 39.7898C131.293 40.7783 131.146 41.1883 131.146 41.7374C131.146 42.6966 131.842 43.048 133.035 43.1066V43.685H127.449V43.1066C129.338 42.8723 129.836 42.206 132.106 36.4145L134.375 30.5938C134.873 29.3125 135.364 28.1776 135.364 27.8555C135.364 27.5626 135.393 27.504 135.51 27.3356L136.821 25.3588C137.026 25.0659 137.114 25.0073 137.319 25.0073C137.846 25.0073 137.787 25.8493 138.629 28.0312L142.993 39.2334C144.333 42.6087 144.684 42.9309 146.485 43.1066V43.685H139.237V43.1066C140.811 42.9309 141.214 42.638 141.214 42.0596C141.214 41.5617 141.038 40.8368 140.745 40.0827L139.376 36.4731H132.889H132.896ZM139.098 35.6604L136.594 29.2246C136.418 28.756 136.272 28.2655 136.184 27.9433H136.125C135.774 29.1075 134.932 31.1722 134.697 31.7872L133.211 35.6604H139.09H139.098Z" fill="#B1B1B1"/>
</svg>
