<?xml version="1.0" standalone="no"?>
<!--
    Copyright (C) 2022 Dynamic Solutions

    Licensed under the Apache License, Version 2.0 (the "License");
    you may not use this file except in compliance with the License.
    You may obtain a copy of the License at

        http://www.apache.org/licenses/LICENSE-2.0

    Unless required by applicable law or agreed to in writing, software
    distributed under the License is distributed on an "AS IS" BASIS,
    WITHOUT WARRANTIES OR CONDITIONS OF ANY KIND, either express or implied.
    See the License for the specific language governing permissions and
    limitations under the License.
-->
<svg width="124" height="52" viewBox="0 0 124 52" fill="none" xmlns="http://www.w3.org/2000/svg">
<rect width="124" height="52" fill="white"/>
<path d="M32.2897 11.9052C34.4736 10.5964 36.6417 9.53997 38.7941 8.75156C40.9465 7.94738 42.9017 7.5374 44.6678 7.5374C46.0633 7.5374 47.0803 7.82123 47.7189 8.39677C48.3575 8.97231 48.6808 9.75284 48.6808 10.7462C48.6808 11.6056 48.3891 12.5675 47.7978 13.6476C47.2065 14.7277 46.0633 15.9498 44.3682 17.3295C42.0345 19.2296 39.1095 21.035 35.6168 22.7538C33.0072 24.031 30.3818 24.9455 27.7248 25.5053C25.9115 25.8759 23.6487 26.1282 20.9366 26.2622C19.0523 30.5354 18.1141 34.2252 18.1141 37.3315C18.1141 38.9083 18.3506 40.1382 18.8236 41.0055C19.2967 41.8728 19.9116 42.4719 20.6764 42.7952C21.4412 43.1263 22.4267 43.2919 23.6408 43.3155C23.5068 42.4562 23.4358 41.652 23.4358 40.8951C23.4358 37.0634 24.4923 33.9098 26.6053 31.4499C28.7182 28.9901 30.9494 27.7523 33.2989 27.7523C34.5446 27.7523 35.5301 28.115 36.2633 28.8403C36.9965 29.5656 37.3592 30.5512 37.3592 31.789C37.3592 34.3592 36.2475 36.7638 34.0321 39.0029C31.3042 41.7939 28.0796 43.4653 24.3504 44.0251C24.5002 45.0343 24.784 46.4613 25.2098 48.3141C25.2571 48.5348 25.2886 48.6689 25.2886 48.7162C25.2886 48.8029 25.265 48.866 25.2256 48.9212C25.1861 48.9685 25.1231 49 25.0363 49C24.9654 49 24.9023 48.9527 24.8313 48.8502C24.6815 48.5821 24.382 47.3759 23.9483 45.2393L23.7197 44.0803C21.9852 44.0488 20.5976 43.7807 19.5569 43.2761C18.1614 42.606 17.0497 41.5495 16.214 40.1225C15.3783 38.6955 14.9683 36.9846 14.9683 35.0057C14.9683 32.3487 15.7803 29.3922 17.4124 26.1282C15.2758 25.7418 13.5255 25.1505 12.1694 24.3621C10.7897 23.5737 9.67807 22.4699 8.82659 21.0429C7.9751 19.6238 7.54932 18.0627 7.54932 16.3676C7.54932 13.5609 8.66102 11.1326 10.8922 9.07481C13.1234 7.02494 16.0011 6 19.5332 6C22.3399 6 24.9102 6.61496 27.2518 7.837C29.0336 8.74367 30.7129 10.1076 32.2976 11.921L32.2897 11.9052ZM31.6353 12.2048C29.9718 10.3363 28.1821 8.93289 26.2741 7.99468C24.3661 7.05647 22.1192 6.58342 19.5253 6.58342C15.9774 6.58342 13.0997 7.71085 10.9001 9.96571C9.22075 11.6845 8.37719 13.5609 8.37719 15.6186C8.37719 16.5095 8.54272 17.3768 8.88173 18.2125C9.22075 19.0561 9.70172 19.8287 10.3482 20.5462C10.9868 21.2637 11.791 21.9023 12.7686 22.4778C13.762 23.0534 14.8027 23.4712 15.8986 23.7393C17.0103 24.0231 17.8539 24.165 18.4452 24.165C19.8722 22.0126 21.4569 20.1283 23.1835 18.5121C24.9338 16.8801 27.7485 14.775 31.6353 12.2048ZM32.2897 12.9853C30.6892 14.0812 29.1991 15.2796 27.8036 16.5963C26.4081 17.905 25.2098 19.2296 24.2006 20.5541C23.4753 21.516 22.6553 22.8011 21.725 24.4094C24.6185 24.4094 27.1335 24.2123 29.2701 23.826C31.4225 23.4397 33.7956 22.667 36.3816 21.5081C38.9675 20.3491 41.254 19.0246 43.2407 17.5502C45.2276 16.0523 46.6073 14.6252 47.3799 13.2613C47.9318 12.2994 48.2156 11.4085 48.2156 10.5886C48.2156 9.84745 47.9476 9.24037 47.4115 8.77521C46.8754 8.30216 46.0081 8.06564 44.8176 8.06564C43.154 8.06564 41.2145 8.4835 38.9912 9.3271C36.7679 10.1865 34.7259 11.2902 32.8653 12.6305C33.6379 13.6713 34.4421 15.0037 35.2857 16.612C35.6563 17.2979 35.8375 17.7316 35.8375 17.8971C35.8375 17.9681 35.8139 18.0233 35.7745 18.0627C35.7351 18.1021 35.6799 18.1258 35.6089 18.1258C35.538 18.1258 35.4749 18.0942 35.4039 18.0233C35.333 17.9366 35.1832 17.6606 34.9466 17.1876C34.1582 15.6107 33.2752 14.1995 32.2976 12.9774L32.2897 12.9853ZM24.2716 43.2761C26.3214 43.1106 28.4107 42.3773 30.5394 41.0843C32.6682 39.7913 34.2371 38.2934 35.2541 36.5983C36.2712 34.9032 36.7837 33.2869 36.7837 31.7574C36.7837 30.7483 36.4998 29.9441 35.94 29.3528C35.3803 28.7536 34.6629 28.454 33.8114 28.454C32.6209 28.454 31.3831 28.9349 30.1058 29.8889C28.3871 31.1661 26.9837 33.011 25.8799 35.4157C24.7761 37.8203 24.2243 40.0515 24.2243 42.1014C24.2243 42.5193 24.24 42.9135 24.2716 43.284V43.2761Z" fill="#B1B1B1"/>
<path d="M41.8688 38.4351C41.7032 39.3102 41.6165 40.0356 41.6165 40.6032C41.6165 41.4074 41.7978 42.0066 42.1605 42.3929C42.5231 42.7792 43.0277 42.9763 43.69 42.9763C44.9672 42.9763 46.3312 42.5033 47.774 41.5651C49.2404 40.6269 51.0695 38.8687 53.2692 36.2906C53.5057 36.0068 53.6634 35.8649 53.7501 35.8649C53.8369 35.8649 53.8999 35.8885 53.9551 35.9279C54.0024 35.9674 54.0339 36.0304 54.0339 36.1172C54.0339 36.2196 53.9788 36.3379 53.8605 36.4719C52.1812 38.4587 50.8094 39.9173 49.7529 40.8634C48.6728 41.8095 47.6005 42.5033 46.5283 42.9685C45.4481 43.4336 44.4942 43.6623 43.6506 43.6623C42.4758 43.6623 41.4667 43.1813 40.6231 42.2273C39.7795 41.2655 39.3616 39.9488 39.3616 38.2695C39.3616 37.7965 39.4247 37.2604 39.535 36.6533V36.4798C39.535 36.4798 39.5035 36.4877 39.4877 36.5035C39.4247 36.5508 39.3616 36.5823 39.3143 36.5823C39.2512 36.5823 39.1881 36.5587 39.1408 36.5035C39.0935 36.4562 39.062 36.3773 39.062 36.2748C39.062 36.1881 39.0856 36.125 39.1408 36.0698C39.3616 35.7545 39.9844 35.0764 41.0094 34.0515C42.0343 33.0266 43.0672 32.1436 44.1 31.4182C45.1328 30.6929 46.1498 30.1331 47.1353 29.7547C48.1287 29.3762 48.9881 29.187 49.7056 29.187C50.6122 29.187 51.314 29.4078 51.7949 29.8572C52.2837 30.3066 52.5281 30.8742 52.5281 31.5601C52.5281 32.4037 52.2127 33.1921 51.5741 33.9333C50.7147 34.9424 49.3272 35.857 47.4113 36.6848C45.4955 37.5284 43.6506 38.1118 41.8845 38.4509L41.8688 38.4351ZM42.0422 37.8517C44.983 37.2604 47.2063 36.2512 48.7043 34.8163C50.2023 33.3814 50.9513 32.0489 50.9513 30.819C50.9513 30.4642 50.8645 30.2041 50.699 30.0385C50.5334 29.8729 50.2732 29.7862 49.9185 29.7862C49.3429 29.7862 48.7674 29.9597 48.1761 30.3144C46.7333 31.2053 45.3929 32.451 44.163 34.0436C43.2879 35.1711 42.5862 36.4404 42.0422 37.8517Z" fill="#B1B1B1"/>
<path d="M69.8418 13.0403L73.2477 12.6855C71.529 15.2085 68.7695 19.5132 64.9458 25.5997C61.1141 31.702 58.4177 36.1172 56.8724 38.8451C56.2023 40.004 55.7765 40.8634 55.6109 41.4153C55.5242 41.7385 55.4848 42.0381 55.4848 42.322C55.4848 42.6216 55.54 42.8423 55.6582 42.9763C55.7765 43.1104 55.9342 43.1813 56.1392 43.1813C56.628 43.1813 57.1878 43.0079 57.8264 42.6531C58.8355 42.117 59.9866 41.234 61.2796 40.004C62.5884 38.7583 63.6764 37.5994 64.5358 36.5192C64.9063 36.0856 65.1507 35.8649 65.269 35.8649C65.3321 35.8649 65.3873 35.8885 65.4346 35.9437C65.474 35.991 65.4976 36.0541 65.4976 36.1172C65.4976 36.3852 64.6146 37.418 62.8485 39.2156C59.9078 42.2116 57.6608 43.7017 56.1155 43.7017C55.4927 43.7017 54.9802 43.473 54.5623 43.0079C54.1524 42.5427 53.9474 41.8804 53.9474 41.0053C53.9474 40.1302 54.1366 39.2708 54.5308 38.3326C54.9329 37.3944 56.0288 35.5337 57.8106 32.7585L59.9551 29.3526C59.3007 30.2987 58.4019 31.4025 57.2587 32.6797L53.4743 36.8898C53.427 36.9213 53.364 36.9371 53.3009 36.9371C53.2378 36.9371 53.1826 36.9135 53.1353 36.8583C53.0959 36.811 53.0723 36.7479 53.0723 36.6848C53.0723 36.5508 53.427 36.0935 54.1287 35.3209C56.4861 32.7664 58.4492 30.4564 60.0339 28.3828C60.8539 27.3421 62.2651 25.2844 64.2441 22.2017C66.2466 19.1269 68.1073 16.0678 69.8418 13.0246V13.0403Z" fill="#B1B1B1"/>
<path d="M67.6974 38.4351C67.5318 39.3102 67.4451 40.0356 67.4451 40.6032C67.4451 41.4074 67.6264 42.0066 67.9891 42.3929C68.3517 42.7792 68.8563 42.9763 69.5186 42.9763C70.7958 42.9763 72.1598 42.5033 73.6026 41.5651C75.069 40.6269 76.8981 38.8687 79.0978 36.2906C79.3343 36.0068 79.492 35.8649 79.5787 35.8649C79.6655 35.8649 79.7286 35.8885 79.7837 35.9279C79.831 35.9674 79.8626 36.0304 79.8626 36.1172C79.8626 36.2196 79.7995 36.3379 79.6891 36.4719C78.0098 38.4587 76.638 39.9173 75.5815 40.8634C74.5014 41.8095 73.4291 42.5033 72.3569 42.9685C71.2767 43.4336 70.3228 43.6623 69.4792 43.6623C68.3045 43.6623 67.2953 43.1813 66.4517 42.2273C65.6081 41.2655 65.1902 39.9488 65.1902 38.2695C65.1902 37.7965 65.2454 37.2604 65.3637 36.6533V36.4798C65.3637 36.4798 65.3321 36.4877 65.3164 36.5035C65.2454 36.5508 65.1902 36.5823 65.1429 36.5823C65.0798 36.5823 65.0168 36.5587 64.9694 36.5035C64.9221 36.4562 64.8906 36.3773 64.8906 36.2748C64.8906 36.1881 64.9143 36.125 64.9694 36.0698C65.1902 35.7545 65.813 35.0764 66.838 34.0515C67.8629 33.0266 68.8958 32.1436 69.9286 31.4182C70.9614 30.6929 71.9784 30.1331 72.9718 29.7547C73.9652 29.3762 74.8246 29.187 75.5421 29.187C76.4488 29.187 77.1504 29.4078 77.6392 29.8572C78.1281 30.3066 78.3725 30.8742 78.3725 31.5601C78.3725 32.4037 78.0492 33.1921 77.4185 33.9333C76.5591 34.9424 75.1715 35.857 73.2557 36.6848C71.3398 37.5284 69.4949 38.1118 67.7289 38.4509L67.6974 38.4351ZM67.8708 37.8517C70.8116 37.2604 73.0349 36.2512 74.5329 34.8163C76.0309 33.3814 76.7799 32.0489 76.7799 30.819C76.7799 30.4642 76.6932 30.2041 76.5276 30.0385C76.362 29.8729 76.1018 29.7862 75.747 29.7862C75.1715 29.7862 74.596 29.9597 74.0047 30.3144C72.5619 31.2053 71.2216 32.451 69.9916 34.0436C69.1165 35.1711 68.4148 36.4404 67.8708 37.8517Z" fill="#B1B1B1"/>
<path d="M85.9096 29.487C85.4523 29.8733 84.9162 30.4094 84.2933 31.1032C83.6547 31.7891 82.4406 33.2162 80.6588 35.3685L79.6969 36.4565C79.6102 36.5433 79.5313 36.5827 79.4446 36.5827C79.3579 36.5827 79.2948 36.559 79.2396 36.5038C79.1923 36.4565 79.1608 36.3935 79.1608 36.3304C79.1608 36.2121 79.2633 36.0466 79.4604 35.8258C79.6811 35.5893 80.4222 34.7299 81.6837 33.2556C82.9452 31.7576 83.8755 30.7011 84.4826 30.0783C84.9398 29.6052 85.4365 29.1401 85.9963 28.667C86.4851 27.6263 87.037 27.106 87.6599 27.106C87.9122 27.106 88.1171 27.1848 88.2748 27.3346C88.4325 27.4844 88.5113 27.6894 88.5113 27.9417C88.5113 28.194 88.4089 28.4305 88.2118 28.6512C88.0068 28.872 87.4312 29.1716 86.4694 29.5579C86.3669 30.165 86.3196 30.7248 86.3196 31.2451C86.3196 32.4356 86.4851 33.6813 86.8242 34.9822C87.1632 36.2752 87.3287 37.2134 87.3287 37.7811C87.3287 38.3881 87.2262 38.9243 87.0134 39.3815C86.8005 39.8467 86.43 40.3592 85.8938 40.9347C87.1395 40.1778 88.6217 38.7429 90.3326 36.6221C90.7189 36.149 90.9554 35.9125 91.0421 35.9125C91.1289 35.9125 91.1919 35.9362 91.2314 35.9756C91.2708 36.015 91.2944 36.0781 91.2944 36.1648C91.2944 36.2673 91.1999 36.4329 91.0185 36.6694C89.4575 38.5537 88.1014 39.9807 86.9582 40.9584C85.7992 41.936 84.6875 42.6298 83.6389 43.0555C82.5904 43.4734 81.6285 43.6863 80.7534 43.6863C79.8782 43.6863 79.2239 43.434 78.6877 42.9294C78.1516 42.4248 77.8835 41.8335 77.8835 41.1633C77.8835 40.7613 78.0097 40.4301 78.2462 40.1778C78.4906 39.9255 78.8139 39.7994 79.216 39.7994C79.555 39.7994 79.8151 39.8782 79.9965 40.0359C80.1778 40.1936 80.2725 40.3986 80.2725 40.6509C80.2725 40.8559 80.1857 41.053 80.0202 41.258C79.6969 41.6285 79.5392 41.9754 79.5392 42.2908C79.5392 42.5431 79.6181 42.7481 79.7758 42.8979C79.9334 43.0477 80.1463 43.1265 80.4223 43.1265C80.9268 43.1265 81.4314 42.9452 81.9518 42.5746C82.4642 42.204 83.0634 41.4866 83.7414 40.4144C84.4195 39.35 84.9319 38.1989 85.271 36.969C85.5233 36.0781 85.6494 34.9664 85.6494 33.6419C85.6652 31.7103 85.7519 30.3306 85.9017 29.5027L85.9096 29.487Z" fill="#B1B1B1"/>
<path d="M103.01 19.5683L106.188 19.3633L102.837 24.5116H108.742C108.892 24.5116 108.994 24.5353 109.042 24.5905C109.089 24.6378 109.12 24.7087 109.12 24.7954C109.12 24.8979 109.089 24.9768 109.018 25.032C108.947 25.095 108.844 25.1187 108.687 25.1187H102.482L97.2627 33.3182C95.1419 36.6453 93.77 38.9869 93.1551 40.3272C92.753 41.1865 92.548 41.8094 92.548 42.1957C92.548 42.4953 92.6347 42.7397 92.816 42.9131C92.9895 43.0866 93.226 43.1812 93.5099 43.1812C93.9435 43.1812 94.5032 43.0078 95.1734 42.653C96.0801 42.1642 97.2548 41.2102 98.7055 39.7753C100.172 38.3325 101.347 37.0947 102.238 36.0697C102.356 35.9199 102.458 35.8411 102.537 35.8411C102.616 35.8411 102.687 35.8647 102.742 35.9199C102.789 35.9672 102.821 36.0303 102.821 36.0934C102.821 36.2116 102.782 36.3141 102.695 36.393C102.19 37.0158 101.094 38.159 99.4151 39.8226C97.7357 41.5019 96.4901 42.5741 95.6859 43.0235C94.8659 43.4808 94.0696 43.7016 93.3128 43.7016C92.6899 43.7016 92.1774 43.465 91.7753 42.9841C91.3732 42.5032 91.1683 41.7778 91.1683 40.8002C91.1683 39.8935 91.389 38.9159 91.8226 37.8752C92.682 35.8253 94.2037 33.3418 96.3876 30.4326C95.4809 31.3945 93.8016 33.3339 91.3654 36.259C90.9948 36.6926 90.7425 36.9133 90.6085 36.9133C90.5375 36.9133 90.4902 36.8976 90.4429 36.866C90.4035 36.8345 90.3799 36.7714 90.3799 36.6926C90.3799 36.6137 90.4193 36.5191 90.506 36.4166C90.7268 36.117 92.5243 33.9647 95.9066 29.9595C97.034 28.635 97.7909 27.7126 98.1772 27.208C98.5636 26.7034 99.0603 26.0017 99.6674 25.1108H98.0038C97.854 25.1108 97.7515 25.0872 97.7042 25.0477C97.6569 25.0083 97.6253 24.9452 97.6253 24.8585C97.6253 24.7403 97.6569 24.6535 97.7278 24.5905C97.7909 24.5353 97.9013 24.5037 98.059 24.5037H99.9748L103.026 19.5604L103.01 19.5683Z" fill="#B1B1B1"/>
<path d="M105.005 38.4351C104.839 39.3102 104.753 40.0356 104.753 40.6032C104.753 41.4074 104.934 42.0066 105.297 42.3929C105.659 42.7792 106.164 42.9763 106.826 42.9763C108.103 42.9763 109.467 42.5033 110.91 41.5651C112.377 40.6269 114.206 38.8687 116.405 36.2906C116.642 36.0068 116.8 35.8649 116.886 35.8649C116.973 35.8649 117.036 35.8885 117.091 35.9279C117.139 35.9674 117.17 36.0304 117.17 36.1172C117.17 36.2196 117.107 36.3379 116.997 36.4719C115.317 38.4587 113.946 39.9173 112.889 40.8634C111.809 41.8095 110.737 42.5033 109.664 42.9685C108.584 43.4336 107.63 43.6623 106.787 43.6623C105.612 43.6623 104.603 43.1813 103.759 42.2273C102.916 41.2655 102.498 39.9488 102.498 38.2695C102.498 37.7965 102.561 37.2604 102.671 36.6533V36.4798C102.671 36.4798 102.64 36.4877 102.624 36.5035C102.561 36.5508 102.498 36.5823 102.451 36.5823C102.38 36.5823 102.324 36.5587 102.277 36.5035C102.23 36.4483 102.198 36.3773 102.198 36.2748C102.198 36.1881 102.222 36.125 102.277 36.0698C102.498 35.7545 103.121 35.0764 104.146 34.0515C105.171 33.0266 106.203 32.1436 107.236 31.4182C108.269 30.685 109.286 30.1331 110.272 29.7547C111.257 29.3762 112.124 29.187 112.842 29.187C113.748 29.187 114.45 29.4078 114.939 29.8572C115.428 30.3066 115.672 30.8742 115.672 31.5601C115.672 32.4037 115.349 33.1921 114.71 33.9333C113.851 34.9424 112.463 35.857 110.547 36.6848C108.632 37.5284 106.787 38.1118 105.021 38.4509L105.005 38.4351ZM105.178 37.8517C108.119 37.2604 110.343 36.2512 111.841 34.8163C113.338 33.3814 114.087 32.0489 114.087 30.819C114.087 30.4642 114.001 30.2041 113.835 30.0385C113.67 29.8729 113.409 29.7862 113.055 29.7862C112.479 29.7862 111.904 29.9597 111.312 30.3144C109.869 31.2053 108.529 32.451 107.299 34.0436C106.424 35.1711 105.722 36.4404 105.178 37.8517Z" fill="#B1B1B1"/>
</svg>
