<?xml version="1.0" standalone="no"?>
<!--
    Copyright (C) 2022 Dynamic Solutions

    Licensed under the Apache License, Version 2.0 (the "License");
    you may not use this file except in compliance with the License.
    You may obtain a copy of the License at

        http://www.apache.org/licenses/LICENSE-2.0

    Unless required by applicable law or agreed to in writing, software
    distributed under the License is distributed on an "AS IS" BASIS,
    WITHOUT WARRANTIES OR CONDITIONS OF ANY KIND, either express or implied.
    See the License for the specific language governing permissions and
    limitations under the License.
-->
<svg width="30" height="62" viewBox="0 0 30 62" fill="none" xmlns="http://www.w3.org/2000/svg">
<path d="M28.2303 22.97C26.4936 14.0828 21.9258 6.35214 15.6327 1.05119C15.6327 1.05119 15.6312 1.05119 15.6312 1.04959C15.6312 1.04959 15.6312 1.04958 15.6298 1.04798C15.6298 1.04798 15.6069 1.03359 15.5912 1.02559C15.584 1.02079 15.5754 1.01599 15.5683 1.01279C15.5626 1.01119 15.5569 1.0112 15.5497 1.0096C15.5454 1.008 15.5425 1.0064 15.5383 1.0048C15.5368 1.0048 15.5368 1.0032 15.5354 1.0032C15.5297 1.0016 15.5239 1.0032 15.5196 1.0032C15.5125 1.0032 15.5053 1 15.4996 1C15.4925 1 15.4853 1.0032 15.4782 1.0032C15.4725 1.0032 15.4682 1.0016 15.4624 1.0032C15.4624 1.0032 15.4495 1.008 15.4481 1.008C15.4424 1.0096 15.4367 1.0096 15.431 1.0112C15.4224 1.0144 15.4152 1.02079 15.4081 1.02399C15.3938 1.03199 15.3695 1.04639 15.3695 1.04639C9.44974 5.88987 4.58577 13.7741 2.7861 22.8884C2.76894 22.914 2.76035 22.946 2.76464 22.9924C1.74464 28.2342 1.74464 33.7734 2.76751 39.0136C2.76894 39.0264 2.77037 39.0392 2.77467 39.052C4.50995 47.9008 9.04774 55.6283 15.3666 60.9484C15.3666 60.9484 15.368 60.9484 15.368 60.95C15.368 60.95 15.368 60.9516 15.3695 60.9516C15.3695 60.9516 15.3709 60.9516 15.3709 60.9532C15.3795 60.9612 15.4009 60.9708 15.4067 60.974C15.4095 60.9756 15.4295 60.9868 15.431 60.9884C15.4395 60.9916 15.441 60.99 15.4495 60.9916C15.4538 60.9932 15.4581 60.9964 15.4624 60.9964C15.4853 61.0012 15.5139 61.0012 15.5368 60.9964C15.5411 60.9948 15.5454 60.9916 15.5497 60.9916C15.5554 60.99 15.5611 60.99 15.5669 60.9884C15.5683 60.9884 15.6212 60.9596 15.6284 60.9532C15.6284 60.9532 15.6298 60.9532 15.6298 60.9516C15.6298 60.9516 15.6298 60.95 15.6312 60.95C21.8027 55.7754 26.4535 48.0783 28.2232 39.0552C28.2274 39.0424 28.2289 39.0296 28.2317 39.0152C28.3862 37.8091 29.8812 31.4173 28.2303 22.97ZM24.5652 48.627L20.6626 45.5718C28.907 38.5273 26.7096 40.418 27.6567 39.6022C26.9843 42.755 25.9471 45.7862 24.5652 48.627ZM3.34117 39.6039C4.36403 40.4836 2.52429 38.8984 10.3352 45.5734L6.43262 48.6286C5.05212 45.7862 4.01354 42.755 3.34117 39.6039ZM6.09503 31.0014C8.93615 25.0942 7.6944 27.6759 10.4897 21.8663V40.1349C7.69584 34.3269 8.93758 36.9102 6.09503 31.0014ZM24.9028 31.0014C22.0617 36.9086 23.3034 34.3269 20.5081 40.1365V21.8663C23.3034 27.6759 22.0602 25.091 24.9028 31.0014ZM10.9332 20.9817L15.4996 15.6392L20.066 20.9817V41.0211L15.4996 46.3636L10.9332 41.0211V20.9817ZM20.0646 16.6213V20.2635L16.1563 15.6904C18.3751 16.2182 17.6712 16.0503 20.0646 16.6213ZM14.8415 15.6904L10.9332 20.2635V16.6213C13.328 16.0503 12.6256 16.2182 14.8415 15.6904ZM10.4897 41.1826V45.0792L3.25247 38.8952L5.87328 31.5836L10.4897 41.1826ZM10.9332 45.3799V41.7377L14.8415 46.3108C12.6227 45.783 13.328 45.9509 10.9332 45.3799ZM16.1563 46.3108L20.0646 41.7377V45.3799C17.6698 45.9509 18.3737 45.783 16.1563 46.3108ZM20.5081 41.1826L25.1245 31.5852L27.7454 38.8968L20.5081 45.0808V41.1826ZM27.7454 23.106L25.126 30.416L20.5095 20.8186V16.9221C29.452 24.5632 26.5365 22.0758 27.7454 23.106ZM19.9459 16.0855C18.4667 15.7336 17.3522 15.468 15.7214 15.0794V2.69713C17.0518 6.91358 17.883 9.54966 19.9459 16.0855ZM15.2779 2.69713V15.0794C12.7386 15.684 12.5669 15.7256 11.0534 16.0855C13.1148 9.54966 13.946 6.91358 15.2779 2.69713ZM10.4897 16.9221V20.8186L5.87328 30.416L3.25247 23.1044C8.27665 18.8127 6.82748 20.0508 10.4897 16.9221ZM11.052 45.9157C12.5312 46.2676 13.6456 46.5332 15.2764 46.9219V59.3041C13.946 55.0876 13.1148 52.4515 11.052 45.9157ZM15.7214 59.3041V46.9219C18.2606 46.3172 18.4323 46.2772 19.9459 45.9157C17.883 52.4515 17.0518 55.0876 15.7214 59.3041ZM27.9456 38.1195L25.3949 31.0014L27.9471 23.8801C28.7611 28.5541 28.7596 33.4439 27.9456 38.1195ZM20.6626 16.4294L24.5652 13.3742C25.95 16.2246 26.99 19.259 27.6609 22.4102L20.6626 16.4294ZM24.3506 12.9375C22.8971 14.0748 23.9014 13.2894 20.3993 16.0311L15.9588 1.95814C19.3493 4.95412 22.2376 8.73068 24.3506 12.9375ZM15.0404 1.95814L10.5999 16.0311C6.83034 13.0799 8.04774 14.0332 6.64864 12.9375C8.76017 8.73068 11.6485 4.95412 15.0404 1.95814ZM6.43262 13.3742L10.3352 16.4294L3.33687 22.4086C4.00781 19.259 5.04782 16.223 6.43262 13.3742ZM3.05076 23.8881C3.37693 24.7919 4.08222 26.7546 5.60435 31.0014L3.05362 38.1195C2.23819 33.4455 2.23819 28.5605 3.05076 23.8881ZM6.64864 49.0637C8.1021 47.9248 7.09786 48.7118 10.5999 45.9701L15.0404 60.0431C11.6485 57.0487 8.76017 53.2705 6.64864 49.0637ZM15.9588 60.0431L20.3993 45.9701C24.1689 48.9213 22.9515 47.968 24.3506 49.0637C22.239 53.2705 19.3493 57.0487 15.9588 60.0431Z" fill="#1D1F31" stroke="#1D1F31" stroke-width="0.35"/>
</svg>
