<?xml version="1.0" standalone="no"?>
<!--
    Copyright (C) 2022 Dynamic Solutions

    Licensed under the Apache License, Version 2.0 (the "License");
    you may not use this file except in compliance with the License.
    You may obtain a copy of the License at

        http://www.apache.org/licenses/LICENSE-2.0

    Unless required by applicable law or agreed to in writing, software
    distributed under the License is distributed on an "AS IS" BASIS,
    WITHOUT WARRANTIES OR CONDITIONS OF ANY KIND, either express or implied.
    See the License for the specific language governing permissions and
    limitations under the License.
-->
<svg width="44" height="62" viewBox="0 0 44 62" fill="none" xmlns="http://www.w3.org/2000/svg">
<path d="M42.5 30.9962C42.5 8.78007 42.4801 9.99864 42.4293 9.91478C42.413 9.86304 33.8801 1.08863 33.8511 1.06543C33.804 1.02975 33.7568 1.01191 33.7043 1.00834C33.4686 0.988714 10.3535 1.01012 10.3462 1.00834C10.2574 0.997634 10.1595 1.03689 10.1087 1.0922C9.97821 1.23136 1.56859 9.88446 1.5559 9.93085C1.45076 10.136 1.52689 51.8672 1.52327 51.8957C1.51239 51.9582 1.53233 52.0188 1.56315 52.0723C1.57402 52.108 10.0815 60.8682 10.1087 60.8949C10.2483 61.0466 8.92315 60.9734 30.4303 60.9984C31.8008 61.0002 33.2547 61.0056 33.6318 60.977C33.6372 60.9788 33.6426 60.9823 33.6481 60.9823C33.7043 60.9895 33.755 60.977 33.8058 60.9502C33.8493 60.9378 33.8656 60.9199 33.8855 60.8985C34.1466 60.6202 42.413 52.1241 42.4293 52.0741C42.4819 51.9867 42.5 53.3498 42.5 30.9962ZM31.9096 57.2374C31.0177 55.7566 31.2334 56.1134 30.898 55.5586L36.8368 49.4407L38.5843 50.3578C32.5005 56.6273 33.7532 55.3373 31.9096 57.2374ZM4.66667 50.1205L2.07254 51.4818C2.04898 47.2908 2.04898 14.7016 2.07254 10.5125L4.66667 11.8738V50.1205ZM29.1867 8.81041L34.3496 14.1361V47.8564L29.1867 53.1821H14.8057L9.63921 47.8564V14.1361L14.8021 8.81041H29.1867ZM9.30384 48.3096L14.3344 53.4943L13.3899 55.0626L7.66869 49.1677C8.66029 48.6486 8.19078 48.8948 9.30384 48.3096ZM7.49103 13.3564L9.07906 14.1914V47.8011L7.49103 48.6361V13.3564ZM9.30384 13.6829L7.66869 12.8247L13.3899 6.92991L14.3344 8.4964C11.3777 11.5437 12.5343 10.3519 9.30384 13.6829ZM36.5014 48.6361L34.9134 47.8011V14.1914L36.5014 13.3564V48.6361ZM30.6007 6.92991L36.322 12.8247L34.6868 13.6829C31.9295 10.839 32.9429 11.8845 29.6581 8.4964C30.5373 7.03518 30.4303 7.21181 30.6007 6.92991ZM5.22865 12.1682L6.92725 13.062V48.9305L5.22865 49.8243V12.1682ZM29.6581 53.4979C32.9447 50.108 31.9295 51.1553 34.6868 48.3114L36.322 49.1695L30.6007 55.0644C30.4213 54.7646 30.5391 54.9591 29.6581 53.4979ZM38.762 49.8243L37.0634 48.9305V13.062L38.762 12.1682V49.8243ZM38.5843 11.6347L36.8368 12.5518L30.898 6.43393C31.179 5.96648 30.9687 6.31795 31.9096 4.75504C33.8946 6.80146 33.0063 5.88797 38.5843 11.6347ZM29.1469 8.25732H14.8438C14.1984 7.18505 14.4069 7.53295 13.9356 6.74971H30.0551C29.4623 7.73456 29.6653 7.39914 29.1469 8.25732ZM12.0811 4.75683C12.973 6.23767 12.7572 5.88083 13.0908 6.4357L7.15204 12.5535L5.40449 11.6365C12.1645 4.6694 12.0104 4.82998 12.0811 4.75683ZM5.4063 50.3578L7.15385 49.4407L13.0926 55.5586C12.8116 56.026 13.0219 55.6745 12.0829 57.2374C11.898 57.0483 13.1361 58.3222 5.4063 50.3578ZM14.8492 53.7369C15.4203 53.7601 16.5768 53.7351 29.1469 53.7351C29.6635 54.5915 29.4623 54.2597 30.0551 55.2428H13.9356C14.6498 54.0617 14.7169 53.9582 14.8492 53.7369ZM39.324 11.8738L41.9181 10.5125C41.9417 14.7016 41.9417 47.2908 41.9181 51.4818L39.324 50.1205V11.8738ZM30.3886 6.19842H13.602L12.6267 4.57841H31.3639L30.3886 6.19842ZM13.602 55.7958H30.3886L31.3639 57.4158H12.6267L13.602 55.7958ZM39.1354 11.3457C39.0792 11.3742 39.6521 11.9327 32.2087 4.26262C33.0118 2.93343 33.3363 2.39997 33.7369 1.74341L41.7368 9.98258L39.1354 11.3457ZM33.1876 1.55786C31.6431 4.11632 31.712 4.00214 31.6975 4.02533H12.295L10.7976 1.54537C15.0831 1.53823 9.467 1.55607 33.1876 1.55786ZM10.2592 1.73806L11.782 4.26262L4.88965 11.3653C4.60504 11.2154 2.50218 10.111 2.25383 9.98081L10.2592 1.73806ZM4.89146 50.629L11.7838 57.7316C11.1021 58.861 10.7287 59.4747 10.2556 60.2508L2.25745 52.0117C2.50581 51.8814 4.60866 50.7771 4.89146 50.629ZM10.8048 60.4364C12.8388 57.0679 11.7221 58.9163 12.295 57.9689H31.6975L33.1949 60.4489C29.0036 60.4614 38.1674 60.4364 10.8048 60.4364ZM33.7315 60.2544L32.2069 57.7299L39.0992 50.6272C39.1626 50.6593 41.6897 51.9867 41.735 52.0117L33.7315 60.2544Z" fill="#1D1F31" stroke="#1D1F31" stroke-width="0.25"/>
</svg>
