<?xml version="1.0" standalone="no"?>
<!--
    Copyright (C) 2022 Dynamic Solutions

    Licensed under the Apache License, Version 2.0 (the "License");
    you may not use this file except in compliance with the License.
    You may obtain a copy of the License at

        http://www.apache.org/licenses/LICENSE-2.0

    Unless required by applicable law or agreed to in writing, software
    distributed under the License is distributed on an "AS IS" BASIS,
    WITHOUT WARRANTIES OR CONDITIONS OF ANY KIND, either express or implied.
    See the License for the specific language governing permissions and
    limitations under the License.
-->
<svg width="131" height="52" viewBox="0 0 131 52" fill="none" xmlns="http://www.w3.org/2000/svg">
<rect width="131" height="52" fill="white"/>
<path d="M18.1648 19.4574C21.6115 19.4574 24.0046 20.021 25.3523 21.1399C26.6999 22.2589 27.3779 23.484 27.3779 24.8153V25.5096C27.3779 26.9961 26.4467 28.2457 24.5927 29.2504C22.7386 30.255 20.4599 30.7532 17.7646 30.7532H14.9385C16.7109 31.7823 17.9851 32.4602 18.761 32.7869C19.5288 33.1218 20.5415 33.4322 21.7912 33.7344L25.5973 39.076C26.2017 39.8683 26.8714 40.3828 27.6147 40.6115C28.358 40.8402 29.2319 40.9627 30.2447 40.9627V41.5835H21.8565L14.1708 30.7532H9.30292V36.4787C9.30292 38.0305 9.60511 39.1658 10.2013 39.8846C10.7976 40.6033 12.0472 40.9627 13.9503 40.9627V41.5835H0V40.9627C1.90305 40.9627 3.15272 40.6033 3.74896 39.8846C4.34519 39.1658 4.64737 38.0305 4.64737 36.4787V24.554C4.64737 23.0021 4.34519 21.8668 3.74896 21.1481C3.15272 20.4293 1.90305 20.07 0 20.07V19.4492H18.1729L18.1648 19.4574ZM9.30292 30.1733H14.9957C17.8299 30.1733 19.7166 29.7077 20.6559 28.7685C21.5952 27.8292 22.0689 26.6939 22.0689 25.3544V24.8643C22.0689 23.5085 21.5788 22.3732 20.6069 21.4421C19.6349 20.511 17.691 20.0455 14.7915 20.0455H9.30292V30.1733Z" fill="#B1B1B1"/>
<path d="M38.0609 24.5623C38.0609 23.0104 37.7587 21.8751 37.1625 21.1564C36.5662 20.4376 35.3166 20.0783 33.4136 20.0783V19.4575H47.3638V20.0783C45.4608 20.0783 44.2112 20.4376 43.6149 21.1564C43.0187 21.8751 42.7164 23.0104 42.7164 24.5623V36.487C42.7164 38.0388 43.0187 39.1741 43.6149 39.8929C44.2112 40.6116 45.4608 40.971 47.3638 40.971V41.5918H33.4136V40.971C35.3166 40.971 36.5662 40.6116 37.1625 39.8929C37.7587 39.1741 38.0609 38.0388 38.0609 36.487V24.5623Z" fill="#B1B1B1"/>
<path d="M53.0161 19.4575H72.5612V20.0783L56.8058 40.971H62.907C65.6514 40.971 67.7178 40.3013 69.0899 38.9618C70.4621 37.6223 71.6382 35.4334 72.6102 32.395H73.2636V41.5918H51.3499V40.971L67.2032 20.0783H63.0622C59.9994 20.0783 57.835 20.7643 56.569 22.1365C55.303 23.5087 54.3229 25.3055 53.6123 27.5271H53.0079V19.4575H53.0161Z" fill="#B1B1B1"/>
<path d="M79.6833 19.4575H99.2284V20.0783L83.473 40.971H89.5742C92.3186 40.971 94.385 40.3013 95.7571 38.9618C97.1293 37.6223 98.3054 35.4334 99.2774 32.395H99.9308V41.5918H78.0171V40.971L93.8704 20.0783H89.7294C86.6666 20.0783 84.5022 20.7643 83.2362 22.1365C81.9702 23.5087 80.9901 25.3055 80.2795 27.5271H79.6751V19.4575H79.6833Z" fill="#B1B1B1"/>
<path d="M126.769 22.4467C129.261 24.7418 130.51 27.429 130.51 30.5082C130.51 33.5874 129.236 36.3889 126.688 38.6349C124.139 40.881 120.979 42 117.205 42C113.432 42 110.385 40.8729 107.788 38.6349C105.191 36.397 103.884 33.6772 103.884 30.5082C103.884 27.3391 105.158 24.6111 107.706 22.3651C110.255 20.119 113.424 19 117.205 19C120.987 19 124.27 20.1516 126.761 22.4467H126.769ZM117.254 19.6452C114.926 19.6452 113.072 20.6499 111.692 22.6673C110.312 24.6847 109.617 27.2983 109.617 30.5082C109.617 33.718 110.336 36.3153 111.774 38.3327C113.211 40.342 115.041 41.3548 117.262 41.3548C119.484 41.3548 121.428 40.3501 122.808 38.3327C124.197 36.3153 124.883 33.7099 124.883 30.5082C124.883 27.3065 124.164 24.6847 122.726 22.6673C121.289 20.6499 119.468 19.6452 117.254 19.6452Z" fill="#B1B1B1"/>
</svg>
