<?xml version="1.0" standalone="no"?>
<!--
    Copyright (C) 2022 Dynamic Solutions

    Licensed under the Apache License, Version 2.0 (the "License");
    you may not use this file except in compliance with the License.
    You may obtain a copy of the License at

        http://www.apache.org/licenses/LICENSE-2.0

    Unless required by applicable law or agreed to in writing, software
    distributed under the License is distributed on an "AS IS" BASIS,
    WITHOUT WARRANTIES OR CONDITIONS OF ANY KIND, either express or implied.
    See the License for the specific language governing permissions and
    limitations under the License.
-->
<svg width="36" height="62" viewBox="0 0 36 62" fill="none" xmlns="http://www.w3.org/2000/svg">
<path d="M32.8733 53.184C34.813 50.2635 35.8387 46.8548 35.8387 43.3188C35.8387 40.0879 35.6377 36.9721 35.2425 34.0585C35.2511 34.0115 35.2529 33.9748 35.2254 33.9278C34.4059 27.9804 32.7393 22.5822 30.2825 17.5711C30.2757 17.5537 30.2688 17.5362 30.2585 17.5223C27.8687 12.6612 24.3501 7.31704 18.6135 1.08718C18.6135 1.08718 18.5688 1.05056 18.5637 1.04708C18.5602 1.04533 18.5585 1.04185 18.5551 1.03836C18.5431 1.03138 18.4829 1.00872 18.464 1.00523C18.4554 1.00349 18.4468 1.00349 18.44 1.00349C18.4331 1.00349 18.4279 1 18.4211 1C18.4142 1 18.409 1.00349 18.4022 1.00349C18.3936 1.00349 18.385 1.00349 18.3764 1.00523C18.3627 1.00697 18.3094 1.02615 18.2922 1.03487C18.2905 1.03662 18.2871 1.03662 18.2853 1.03836C18.2819 1.0401 18.2802 1.04359 18.2768 1.04708C18.2716 1.05056 18.2269 1.08718 18.2269 1.08718C13.6621 6.04422 9.57653 11.4232 6.57165 17.5415C6.5665 17.5502 6.56306 17.5589 6.5579 17.5676C2.58232 25.6736 1 34.0795 1 43.317C1 46.8513 2.02567 50.2618 3.96535 53.1823C3.97566 53.2276 3.998 53.252 4.03064 53.2782C5.68685 55.7384 7.94781 57.7505 10.573 59.0983C18.3919 63.1121 27.8961 60.5856 32.8149 53.2782C32.8407 53.2538 32.863 53.2294 32.8733 53.184ZM25.0322 9.81561C26.7519 12.2566 28.2088 14.6593 29.463 17.1317C28.3171 16.6453 27.635 16.3646 23.0323 14.417C23.7883 12.6786 24.2934 11.5139 25.0322 9.81561ZM29.7465 17.8431L28.4648 28.2611C26.4032 27.0406 25.0304 26.2281 23.1165 25.0947C23.0306 19.7855 23.0375 20.2179 22.9533 14.9662C25.508 16.049 27.1643 16.7499 29.7465 17.8431ZM32.303 52.8214L24.7006 52.9765L26.2107 47.3011C27.5061 46.1225 28.6572 45.0763 30.645 43.2682C31.2206 46.5863 31.7824 49.8206 32.303 52.8214ZM14.4077 15.2609C16.5948 17.7751 15.8388 16.9068 18.0706 19.4734C17.1257 20.7061 15.2014 23.2151 14.2582 24.4479L14.4077 15.2609ZM30.8065 42.1593C29.0747 39.026 29.1297 39.1272 27.3842 35.9678L28.8462 29.1939L34.6412 34.1074C32.2119 39.2056 32.9885 37.5736 30.8065 42.1593ZM27.2811 36.8867L30.487 42.6876L26.3087 46.4869L27.2811 36.8867ZM26.8292 36.048C26.5286 39.0103 25.9822 44.4155 25.7211 46.9873L18.4159 51.1789L11.1107 46.9873C10.8496 44.4137 10.3015 38.9912 10.0026 36.048L14.2118 25.3876L18.4159 19.9023L22.62 25.3876L26.8292 36.048ZM9.55247 36.8867L10.5249 46.4869L6.34659 42.6876L9.55247 36.8867ZM11.2826 47.7074L17.7373 51.4108L12.669 52.919L11.2826 47.7074ZM28.3772 28.8347L27.0268 35.0925L23.3897 25.8811C26.6317 27.8008 25.3122 27.0197 28.3772 28.8347ZM22.4259 15.2609L22.5736 24.4479C21.6304 23.2169 19.7062 20.7061 18.7613 19.4734C21.0016 16.8981 20.2371 17.7769 22.4259 15.2609ZM25.5493 47.7074L24.1628 52.919L19.0946 51.4108L25.5493 47.7074ZM18.4159 19.0532C18.0757 18.6609 14.9094 15.022 14.4524 14.4954L18.4159 2.14554L22.3795 14.4954C21.9225 15.022 18.7578 18.6609 18.4159 19.0532ZM13.4439 25.8811L9.80674 35.0925L8.45635 28.8347C11.3238 27.1365 10.5008 27.6247 13.4439 25.8811ZM7.98733 29.1939C8.41856 31.1938 8.92195 33.5198 9.44939 35.9678L6.02702 42.1593L2.19404 34.0952C5.52535 31.2758 4.07703 32.5015 7.98733 29.1939ZM6.18852 43.2699C8.17287 45.0746 9.32568 46.1225 10.6228 47.3029L12.133 52.9783L4.5306 52.8231C6.66442 40.5186 5.72808 45.9132 6.18852 43.2699ZM31.1484 43.0555L35.3027 43.5594C35.2597 46.6891 34.3887 49.709 32.7703 52.3506C32.6053 51.4003 32.3579 50.0299 31.1484 43.0555ZM31.2257 42.5202L34.8216 34.967C35.1309 37.5213 35.2924 40.2221 35.3044 43.0136C33.9849 42.855 32.3717 42.6597 31.2257 42.5202ZM29.1658 28.7598L33.2066 26.7511C33.7994 28.8888 34.2701 31.1066 34.6069 33.3594C33.2032 32.1789 32.0521 31.2078 29.1658 28.7598ZM7.08535 17.8431L13.8785 14.9662C13.7943 20.2196 13.8012 19.7872 13.7153 25.0947C11.8014 26.2281 10.427 27.0423 8.36702 28.2611C8.09041 26.0119 7.27262 19.36 7.08535 17.8431ZM3.6269 26.7511L7.66605 28.7598L2.22668 33.3628C2.56342 31.1084 3.03417 28.8888 3.6269 26.7511ZM2.01022 34.967C3.05651 37.1586 4.56496 40.3285 5.6061 42.5202L1.52744 43.0136C1.53947 40.2239 1.70097 37.5231 2.01022 34.967ZM5.68341 43.0555C4.49967 49.8764 4.19043 51.6008 4.05986 52.3506C2.44145 49.709 1.5704 46.6874 1.52744 43.5594L5.68341 43.0555ZM12.9388 53.4002L18.4159 51.77C20.3264 52.3384 21.84 52.7882 23.8931 53.4002C23.2316 54.2337 19.3196 59.1611 18.4159 60.2979C16.7769 58.2335 14.5795 55.4664 12.9388 53.4002ZM24.2504 53.8274L25.8207 58.7217C23.6697 59.7905 21.371 60.3711 18.9794 60.4496C26.8756 50.5076 22.1905 56.4411 24.2504 53.8274ZM29.0043 28.2384C29.7723 21.9981 29.5163 24.073 30.188 18.6138C31.3529 21.0914 32.2944 23.5917 33.0555 26.2246L29.0043 28.2384ZM22.7179 13.8032L19.0464 2.36349C21.17 4.72606 23.0186 7.00668 24.6714 9.30822L22.7179 13.8032ZM17.7854 2.36175L14.1139 13.8015L12.1605 9.30648C13.8132 7.00668 15.6619 4.72606 17.7854 2.36175ZM11.7997 9.81561C12.5385 11.5156 13.0436 12.6786 13.7978 14.4152L7.36367 17.1387C8.61957 14.6628 10.0782 12.2566 11.7997 9.81561ZM6.63866 18.6225C6.81905 20.0906 6.86544 20.4149 7.82755 28.2367L3.77637 26.2228C4.53575 23.5952 5.47553 21.0984 6.63866 18.6225ZM4.73333 53.3671L12.1192 53.5188L10.5283 58.4741C8.24159 57.2449 6.25209 55.4891 4.73333 53.3671ZM11.0111 58.7217L12.5814 53.8274C13.1673 54.5702 13.7737 55.3112 17.8524 60.4496C15.4591 60.3711 13.1621 59.7905 11.0111 58.7217ZM26.3018 58.4741L24.7109 53.5188L32.0968 53.3671C30.5815 55.4891 28.5902 57.2449 26.3018 58.4741Z" fill="#1D1F31" stroke="#1D1F31" stroke-width="0.25"/>
</svg>
