<?xml version="1.0" standalone="no"?>
<!--
    Copyright (C) 2022 Dynamic Solutions

    Licensed under the Apache License, Version 2.0 (the "License");
    you may not use this file except in compliance with the License.
    You may obtain a copy of the License at

        http://www.apache.org/licenses/LICENSE-2.0

    Unless required by applicable law or agreed to in writing, software
    distributed under the License is distributed on an "AS IS" BASIS,
    WITHOUT WARRANTIES OR CONDITIONS OF ANY KIND, either express or implied.
    See the License for the specific language governing permissions and
    limitations under the License.
-->
<svg width="52" height="60" viewBox="0 0 52 60" fill="none" xmlns="http://www.w3.org/2000/svg">
<g clip-path="url(#clip0_166_3413)">
<path fill-rule="evenodd" clip-rule="evenodd" d="M50.75 30.1403C50.75 12.308 32.5621 0.0786128 16.0054 6.93311C9.87785 9.4702 4.96356 14.3733 2.40575 20.5262C-0.132575 26.6455 -0.137927 33.6208 2.40576 39.7509C9.24923 56.2442 30.7235 60.5581 43.3917 47.896C48.062 43.228 50.75 36.9057 50.75 30.1403ZM32.5022 12.5021C30.5092 10.2785 30.1583 9.88678 26.5356 5.84322C29.3058 5.94441 32.0004 6.50849 34.5664 7.52177C34.2286 8.33647 33.9345 9.0461 33.645 9.74484L33.6274 9.78752C33.2711 10.6474 32.9205 11.4937 32.5022 12.5021ZM18.7459 12.5004L16.6816 7.52173C19.2492 6.5069 21.9453 5.94434 24.714 5.84322L18.7459 12.5004ZM19.5515 13.2769C19.5526 13.2777 19.5594 13.2829 19.567 13.2914C20.2569 13.6706 21.9257 14.5815 25.624 16.5895L28.2815 15.1468C29.2664 14.6121 29.9568 14.2372 31.992 13.133C31.0138 12.0411 30.2896 11.2326 29.7354 10.6139C28.6124 9.36024 28.1877 8.88611 27.7628 8.41216C27.5041 8.12361 27.2453 7.83514 26.8289 7.37086C26.5288 7.03633 26.1468 6.61052 25.624 6.02765C24.2657 7.54245 23.1524 8.78368 22.0826 9.97642L22.0752 9.9847C21.1498 11.0164 20.2566 12.0122 19.2651 13.1179C19.3303 13.1528 19.4054 13.1934 19.46 13.2234C19.4911 13.2405 19.5175 13.2552 19.5311 13.2633C19.5339 13.265 19.5392 13.2681 19.5442 13.2715L19.5475 13.2738L19.5515 13.2769ZM33.8404 11.3602C34.2663 10.3333 34.801 9.04392 35.3043 7.82822C37.8391 8.92639 40.1429 10.433 42.1704 12.3164L33.24 12.8085C33.3862 12.4555 33.5953 11.9513 33.8404 11.3602ZM15.7157 12.6814C13.4926 12.5598 10.8223 12.4137 9.08108 12.3181C11.1069 10.4348 13.4106 8.9281 15.9438 7.82829L18.008 12.8068L15.7157 12.6814ZM9.08877 22.6149L8.56627 13.089C10.2698 13.1821 11.7746 13.2648 13.3145 13.3493L13.3321 13.3503C14.8161 13.4318 16.3335 13.5151 18.0933 13.6113L16.0359 20.5568L9.08877 22.6149ZM35.2138 20.5568L33.1548 13.613L42.6852 13.0891L42.6249 14.1808C42.4287 17.7296 42.4192 17.901 42.161 22.6149L35.2138 20.5568ZM4.43981 20.9392C4.1542 20.8208 3.79082 20.6701 3.29948 20.4665C4.40147 17.9313 5.91049 15.6286 7.79326 13.6037L7.97455 16.9102C8.06534 18.5654 8.13113 19.7649 8.28223 22.5298C7.72015 22.2972 7.28108 22.1156 6.92841 21.9697C6.09585 21.6252 5.74488 21.48 5.39398 21.3347C5.13812 21.2287 4.88229 21.1226 4.43981 20.9392ZM42.9659 22.5297L43.4582 13.6038C45.3408 15.6303 46.8482 17.9345 47.9485 20.4664L42.9659 22.5297ZM18.8231 13.9756C18.8325 13.9435 18.8459 13.8976 18.8663 13.8277L24.6977 16.9929L16.9795 20.1883C18.5326 14.9457 18.7372 14.2641 18.7861 14.1009C18.7924 14.08 18.7962 14.0676 18.7998 14.0551C18.8052 14.0372 18.8104 14.0193 18.8231 13.9756ZM34.2702 20.1883C31.5854 19.0771 29.2384 18.1057 26.552 16.9929L32.384 13.8274L34.2702 20.1883ZM14.4289 26.5772C14.8192 25.6348 15.4459 24.1215 16.6629 21.1835L17.7342 20.74C19.6481 19.9476 20.5186 19.5871 21.3891 19.2268L25.624 17.4746L34.5851 21.1835C35.8984 24.3532 36.5246 25.8641 36.908 26.7892L36.9089 26.7913C37.4417 28.0771 37.5053 28.2305 38.2958 30.1403C37.462 32.1512 37.4362 32.2134 36.8186 33.7047L36.8171 33.7082C36.4267 34.6509 35.8001 36.1641 34.5851 39.0971C31.4514 40.3942 29.9382 41.0207 29.0098 41.4051L28.977 41.4187C27.6884 41.9522 27.5359 42.0154 25.624 42.806C23.615 41.9737 23.55 41.9468 22.0644 41.3322L21.9973 41.3044C21.0503 40.9126 19.5388 40.2872 16.6629 39.097C15.3494 35.9268 14.7232 34.4159 14.3398 33.4908L14.3386 33.4881C13.8062 32.2034 13.7424 32.0495 12.9522 30.1403C13.7854 28.1311 13.8118 28.0673 14.4279 26.5796L14.4289 26.5772ZM1.31534 29.2307C1.41803 26.4585 1.98075 23.7638 2.99277 21.204L7.97553 23.2673C4.92431 26 4.44463 26.4295 1.31534 29.2307ZM46.2261 25.9128C45.1908 24.986 44.1715 24.0734 43.2707 23.2672C44.2813 22.8485 45.129 22.4976 45.9908 22.1409C46.7023 21.8463 47.4234 21.5479 48.2535 21.204C49.2689 23.7671 49.8317 26.4619 49.9328 29.231C48.8059 28.2225 47.5121 27.0643 46.2415 25.9267L46.2261 25.9128ZM12.472 29.2128L9.30331 23.3836L15.6691 21.4983C14.5461 24.2093 13.6739 26.3135 12.472 29.2128ZM38.7778 29.2127C38.1768 27.7622 36.3282 23.3014 35.5808 21.4983L37.4292 22.0459C38.9906 22.5084 40.7809 23.0387 41.9431 23.3835C40.2628 26.4802 39.9593 27.0387 39.1101 28.6012L38.7778 29.2127ZM40.1889 28.2918C40.9795 26.8365 41.2642 26.3124 42.6412 23.7754L44.433 25.3795C46.9958 27.6738 47.5192 28.1423 49.7499 30.1403C47.1159 32.4978 45.2909 34.1316 42.6412 36.5052C41.8672 35.0807 40.2652 32.1303 39.1848 30.1403L40.1889 28.2918ZM8.60685 36.5052L1.49982 30.1403L8.60685 23.7754L12.0667 30.1403L8.60685 36.5052ZM45.994 38.1403C45.1317 37.7834 44.2836 37.4324 43.2724 37.0133C45.4971 35.0215 45.889 34.6706 49.9346 31.0497C49.8334 33.8187 49.269 36.5135 48.2552 39.0766C47.4317 38.7355 46.7155 38.439 46.0094 38.1467L45.994 38.1403ZM2.99448 39.0766C1.98079 36.5168 1.41806 33.822 1.31854 31.0497C3.54039 33.0406 4.45078 33.8558 6.47211 35.6656L7.97729 37.0133L2.99448 39.0766ZM35.5825 38.7806C36.6942 36.0972 37.6661 33.7514 38.7794 31.0664C39.872 33.0827 40.7104 34.6264 41.9447 36.897L35.5825 38.7806ZM15.669 38.7806L9.30333 36.897L12.4721 31.0677C13.3378 33.1546 14.0316 34.829 14.7793 36.6334L15.669 38.7806ZM8.56628 47.1916L9.08877 37.6657L16.0377 39.7238C16.6466 41.7799 16.8636 42.5128 16.9855 42.9248C17.0246 43.0567 17.0539 43.1556 17.0832 43.2546L18.095 46.6693L8.56628 47.1916ZM33.1548 46.6693L35.2138 39.7238C36.9063 39.2219 39.9721 38.3139 41.8512 37.7575L42.161 37.6657L42.4061 42.1203C42.4828 43.5163 42.5425 44.6019 42.6852 47.1916L33.1548 46.6693ZM43.4582 46.6766L42.9659 37.7509L47.9485 39.8142C46.8465 42.346 45.3392 44.6502 43.4582 46.6766ZM7.79327 46.6769C5.91054 44.652 4.40153 42.3477 3.29953 39.8142C4.26861 39.413 4.73941 39.2182 5.09707 39.0702L5.11779 39.0616C5.75746 38.797 6.05105 38.6755 8.28222 37.7509C8.10642 40.968 8.0461 42.0676 7.92752 44.2292L7.79327 46.6769ZM32.3858 46.4549L26.5536 43.2877C29.4462 42.088 31.5483 41.2178 34.2703 40.0921L32.3858 46.4549ZM18.664 45.7709C18.5034 45.2328 18.1673 44.1059 16.9794 40.0923C19.9996 41.3432 20.3917 41.5055 21.5692 41.9928L24.6976 43.2877C22.8987 44.2638 22.3586 44.557 21.7439 44.8909L21.7409 44.8925C21.1813 45.1964 20.5579 45.535 18.8661 46.453C18.7833 46.1709 18.747 46.0491 18.664 45.7709ZM25.6258 54.2547L19.2561 47.1511L25.6258 43.6929L31.9937 47.1511L25.6258 54.2547ZM35.3043 52.4524L33.24 47.4738L42.1704 47.9626C40.1429 49.8475 37.8391 51.3542 35.3043 52.4524ZM15.9438 52.454C13.4107 51.3526 11.1071 49.846 9.07974 47.9643C13.9468 47.6985 16.0876 47.5864 17.2634 47.5249L17.2677 47.5247C17.565 47.5091 17.8005 47.4968 18.0028 47.486L15.9438 52.454ZM16.6833 52.7589L18.746 47.7802C20.5543 49.7965 22.2007 51.6326 23.427 53.0002L24.7157 54.4374C21.9454 54.3363 19.2493 53.7737 16.6833 52.7589ZM34.5664 52.7589C32.0021 53.7737 29.3061 54.3363 26.5357 54.4374L32.5021 47.7803L34.5664 52.7589Z" fill="#1D1F31"/>
</g>
<defs>
<clipPath id="clip0_166_3413">
<rect width="51" height="60" fill="white" transform="translate(0.5)"/>
</clipPath>
</defs>
</svg>
