<?xml version="1.0" standalone="no"?>
<!--
    Copyright (C) 2022 Dynamic Solutions

    Licensed under the Apache License, Version 2.0 (the "License");
    you may not use this file except in compliance with the License.
    You may obtain a copy of the License at

        http://www.apache.org/licenses/LICENSE-2.0

    Unless required by applicable law or agreed to in writing, software
    distributed under the License is distributed on an "AS IS" BASIS,
    WITHOUT WARRANTIES OR CONDITIONS OF ANY KIND, either express or implied.
    See the License for the specific language governing permissions and
    limitations under the License.
-->
<svg width="126" height="52" viewBox="0 0 126 52" fill="none" xmlns="http://www.w3.org/2000/svg">
<rect width="126" height="52" fill="white"/>
<path d="M12.9074 36.5812C12.9074 38.4138 12.258 39.9361 10.9594 41.141C9.66069 42.3459 8.05176 42.9447 6.13983 42.9447C4.85558 42.9447 3.60742 42.5984 2.3809 41.913C1.90472 41.646 1.11109 41.0833 0 40.2175L1.52233 38.1252C2.5757 38.926 3.32604 39.4671 3.78779 39.7341C4.64636 40.2103 5.51936 40.4483 6.39957 40.4483C7.48901 40.4483 8.39086 40.1165 9.09792 39.4455C9.80497 38.7745 10.1585 37.9376 10.1585 36.9203C10.1585 35.9607 9.71118 35.1599 8.80933 34.5105C8.34758 34.1859 7.4818 33.7746 6.19756 33.2768L4.7618 32.7285C3.41984 32.2162 2.43862 31.5813 1.81093 30.8382C1.08223 29.9796 0.721484 28.8469 0.721484 27.4544C0.721484 25.8311 1.29146 24.5108 2.43141 23.5079C3.57135 22.505 4.94938 22 6.57272 22C7.71988 22 8.71553 22.1587 9.55245 22.4762C10.3966 22.7936 11.1974 23.3059 11.9622 24.0129L10.4687 26.0475C9.94926 25.4559 9.3288 25.0014 8.60731 24.6839C7.87861 24.3665 7.16434 24.2077 6.45728 24.2077C5.63479 24.2077 4.93496 24.518 4.35056 25.1385C3.76616 25.7589 3.47756 26.4732 3.47756 27.274C3.47756 28.0749 3.71565 28.6809 4.19183 29.1932C4.57422 29.5972 5.10089 29.9291 5.77187 30.1961L7.2365 30.766C9.58853 31.6679 11.1469 32.5697 11.9117 33.4932C12.5827 34.3157 12.9146 35.3402 12.9146 36.5596L12.9074 36.5812Z" fill="#B1B1B1"/>
<path d="M35.4826 32.4834C35.4826 35.4631 34.4942 37.9594 32.5173 39.958C30.5404 41.9565 28.0586 42.9521 25.0716 42.9521C22.0847 42.9521 19.5306 41.9565 17.4599 39.958C15.3821 37.9594 14.3503 35.4703 14.3503 32.4834C14.3503 29.4964 15.4037 27.1805 17.5032 25.1098C19.61 23.0464 22.1279 22.0146 25.0788 22.0146C28.0297 22.0146 30.425 23.0464 32.4524 25.1098C34.4797 27.1733 35.4898 29.6335 35.4898 32.4834H35.4826ZM32.842 32.4834C32.842 30.2684 32.0989 28.3709 30.6054 26.8053C29.1119 25.2397 27.2433 24.4533 24.985 24.4533C22.7268 24.4533 20.7138 25.2253 19.2204 26.7764C17.7269 28.3276 16.9838 30.2107 16.9838 32.4257C16.9838 34.6406 17.7702 36.6319 19.3358 38.1615C20.9014 39.691 22.7845 40.4558 24.985 40.4558C27.1856 40.4558 29.0398 39.6838 30.5621 38.147C32.0844 36.6103 32.842 34.72 32.842 32.4834Z" fill="#B1B1B1"/>
<path d="M52.4015 35.0949C52.4015 37.3892 51.781 39.2506 50.54 40.6864C49.2197 42.1943 47.4016 42.9518 45.0928 42.9518C42.7841 42.9518 40.9659 42.1943 39.6456 40.6864C38.4046 39.2723 37.7842 37.4108 37.7842 35.0949V22.4473H40.4248V34.7486C40.4248 36.4657 40.7495 37.8149 41.3916 38.7961C42.1708 39.9793 43.4045 40.5709 45.1 40.5709C46.7955 40.5709 48.0293 39.9865 48.8085 38.8177C49.4578 37.8437 49.7752 36.4873 49.7752 34.7486V22.4473H52.4159V35.0949H52.4015Z" fill="#B1B1B1"/>
<path d="M71.4486 22.4472L62.7547 43.5794L53.9021 22.4472H56.6293L62.6753 36.9201L68.5987 22.4399H71.4486V22.4472Z" fill="#B1B1B1"/>
<path d="M92.8693 32.4834C92.8693 35.4631 91.8809 37.9594 89.904 39.958C87.9272 41.9565 85.4452 42.9521 82.4583 42.9521C79.4714 42.9521 76.9173 41.9565 74.8467 39.958C72.7688 37.9594 71.7371 35.4703 71.7371 32.4834C71.7371 29.4964 72.7904 27.1805 74.8899 25.1098C76.9967 23.0464 79.5147 22.0146 82.4655 22.0146C85.4164 22.0146 87.8117 23.0464 89.8391 25.1098C91.8665 27.1733 92.8765 29.6335 92.8765 32.4834H92.8693ZM90.2287 32.4834C90.2287 30.2684 89.4856 28.3709 87.9921 26.8053C86.4986 25.2397 84.63 24.4533 82.3717 24.4533C80.1135 24.4533 78.1006 25.2253 76.6071 26.7764C75.1136 28.3276 74.3705 30.2107 74.3705 32.4257C74.3705 34.6406 75.1569 36.6319 76.7225 38.1615C78.2881 39.691 80.1712 40.4558 82.3717 40.4558C84.5723 40.4558 86.4265 39.6838 87.9488 38.147C89.4711 36.6103 90.2287 34.72 90.2287 32.4834Z" fill="#B1B1B1"/>
<path d="M109.795 35.0949C109.795 37.3892 109.175 39.2506 107.934 40.6864C106.614 42.1943 104.796 42.9518 102.487 42.9518C100.178 42.9518 98.36 42.1943 97.0397 40.6864C95.7987 39.2723 95.1782 37.4108 95.1782 35.0949V22.4473H97.8189V34.7486C97.8189 36.4657 98.1435 37.8149 98.7856 38.7961C99.5648 39.9793 100.799 40.5709 102.494 40.5709C104.19 40.5709 105.423 39.9865 106.202 38.8177C106.852 37.8437 107.169 36.4873 107.169 34.7486V22.4473H109.81V35.0949H109.795Z" fill="#B1B1B1"/>
<path d="M126 42.519H122.941L117.075 33.9189H115.878V42.519H113.237V22.4473H116.563C117.862 22.4473 118.937 22.4978 119.774 22.606C120.618 22.7142 121.44 22.9884 122.241 23.4357C123.042 23.883 123.648 24.5324 124.045 25.3837C124.442 26.2351 124.644 27.2018 124.644 28.2985C124.644 29.6332 124.189 30.8165 123.28 31.841C122.371 32.8655 121.217 33.522 119.824 33.8034L125.993 42.5262L126 42.519ZM122.097 28.3201C122.097 26.8267 121.606 25.8094 120.632 25.2538C119.904 24.8354 118.814 24.6261 117.364 24.6261H115.87V31.8554H117.018C118.41 31.8554 119.528 31.639 120.373 31.1989C121.52 30.6073 122.097 29.6477 122.097 28.3274V28.3201Z" fill="#B1B1B1"/>
</svg>
