<?xml version="1.0" standalone="no"?>
<!--
    Copyright (C) 2022 Dynamic Solutions

    Licensed under the Apache License, Version 2.0 (the "License");
    you may not use this file except in compliance with the License.
    You may obtain a copy of the License at

        http://www.apache.org/licenses/LICENSE-2.0

    Unless required by applicable law or agreed to in writing, software
    distributed under the License is distributed on an "AS IS" BASIS,
    WITHOUT WARRANTIES OR CONDITIONS OF ANY KIND, either express or implied.
    See the License for the specific language governing permissions and
    limitations under the License.
-->
<svg width="179" height="52" viewBox="0 0 179 52" fill="none" xmlns="http://www.w3.org/2000/svg">
<rect width="179" height="52" fill="white"/>
<path d="M0 43.044C1.71694 42.714 1.87856 42.4851 1.87856 40.1757V22.8851C1.87856 20.5756 1.71021 20.3467 0 19.9494V19.4512C0 19.4512 2.20849 19.7138 3.69651 19.7138C5.08353 19.7138 7.81716 19.4512 7.81716 19.4512V19.9494C5.54137 20.2793 5.4067 20.5756 5.4067 22.8851V41.6906H11.7089C15.3717 41.6906 16.4288 40.8355 17.0886 37.0717H17.7485L17.1896 43.6028H0V43.044Z" fill="#B1B1B1"/>
<path d="M34.9651 43.5222C33.6252 43.5222 31.511 43.603 31.511 43.603V43.1451C33.3559 42.9297 33.4097 42.795 32.2583 39.8526L30.8646 36.3178H23.9834L22.6435 39.6911C22.2934 40.5462 21.5191 42.1015 21.9769 42.7142C22.1655 43.0105 22.4348 43.0643 23.5255 43.1451V43.603C23.5255 43.603 21.7884 43.5222 20.6909 43.5222C19.5934 43.5222 18.0381 43.603 18.0381 43.603V43.1451C19.2702 42.9027 19.4588 42.6873 20.0445 41.2195L25.6936 27.0328C26.441 25.1341 26.2861 24.7032 25.1078 24.4877V24.0029C27.0335 24.1645 27.249 24.1645 29.1477 24.0299C29.3901 24.9927 29.5247 25.5583 29.6325 25.7131L36.0558 41.6369C36.5406 42.8421 36.7494 43.0037 37.9546 43.1384V43.5963C37.9546 43.5963 36.1097 43.5155 34.9583 43.5155L34.9651 43.5222ZM27.4442 27.4099L24.5557 34.823H30.2048L27.4509 27.4099H27.4442Z" fill="#B1B1B1"/>
<path d="M52.976 43.6026L41.4153 27.194V40.465C41.4153 42.4176 41.7653 43.0101 43.3678 43.1448V43.6026C43.3678 43.6026 41.7115 43.5218 40.641 43.5218C39.5704 43.5218 38.042 43.6026 38.042 43.6026V43.1448C39.4627 42.9562 39.5435 42.8216 39.5435 41.2729V26.6621C39.5435 24.9519 39.4088 24.7365 38.0958 24.4941V24.0093C39.6242 24.0901 40.3178 24.1709 42.5666 24.0093L52.8413 38.4316V27.1469C52.8413 25.1404 52.4912 24.6018 50.8887 24.42V24.016C50.8887 24.016 52.545 24.0968 53.6425 24.0968C54.6323 24.0968 55.9453 24.016 55.9453 24.016V24.42C54.9825 24.5816 54.7132 25.2751 54.7132 26.3457V43.6093H52.976V43.6026Z" fill="#B1B1B1"/>
<path d="M73.1552 37.1523C73.1552 41.3268 70.9871 43.9258 65.7959 43.9258C59.6957 43.9258 58.1673 40.7141 58.1673 37.4216V26.7968C58.1673 24.925 58.0327 24.7365 56.6389 24.4133V24.0093C56.6389 24.0093 58.4299 24.0901 59.6351 24.0901C60.7595 24.0901 62.9814 24.0093 62.9814 24.0093V24.4133C61.2174 24.7095 61.0289 24.9182 61.0289 26.7968V37.2331C61.0289 41.0104 62.9545 42.4782 65.769 42.4782C68.5834 42.4782 70.2937 40.6872 70.2937 37.3408V26.7968C70.2937 24.925 70.1051 24.7095 68.3411 24.4133V24.0093C68.3411 24.0093 70.536 24.0901 71.6874 24.0901C72.8387 24.0901 74.6836 24.0093 74.6836 24.0093V24.4133C73.2898 24.7365 73.1552 24.9182 73.1552 26.7968V37.1523Z" fill="#B1B1B1"/>
<path d="M79.7739 40.8218C79.7739 42.6936 79.9086 42.8822 81.3023 43.1515V43.6093C81.3023 43.6093 79.5112 43.5285 78.3868 43.5285C77.1816 43.5285 75.3906 43.6093 75.3906 43.6093V43.1515C76.7844 42.8822 76.9191 42.6936 76.9191 40.8218V26.7968C76.9191 24.925 76.7844 24.7365 75.3906 24.4133V24.0093C75.3906 24.0093 77.1816 24.0901 78.3868 24.0901C79.5112 24.0901 81.3023 24.0093 81.3023 24.0093V24.4133C79.9086 24.7365 79.7739 24.9182 79.7739 26.7968V40.8218Z" fill="#B1B1B1"/>
<path d="M90.8497 25.5647V40.8219C90.8497 42.6937 91.0921 42.9092 92.8561 43.1516V43.6094C92.8561 43.6094 90.5804 43.5286 89.456 43.5286C88.3315 43.5286 86.0557 43.6094 86.0557 43.6094V43.1516C87.9275 42.9361 87.9814 42.8284 87.9814 40.8219V25.5647H86.6954C83.1875 25.5647 82.8979 25.861 82.1707 28.8841H81.7129C81.9014 27.6251 82.1707 25.1877 82.1707 24.0161H96.8624C96.8624 25.1944 97.0778 27.6318 97.3202 28.8841H96.8624C96.1419 25.861 95.8457 25.5647 92.3377 25.5647H90.8362H90.8497Z" fill="#B1B1B1"/>
<path d="M120.859 37.6103C120.193 41.5155 117.998 43.926 113.15 43.926C108.867 43.926 105.629 41.5963 105.629 37.9066C105.629 34.7757 107.474 32.8231 110.82 32.2845C109.245 31.591 107.824 30.5743 107.824 28.6149C107.824 25.6456 110.524 23.6392 114.436 23.6392C116.281 23.6392 118.186 24.0701 119.122 24.5751V25.08C119.122 25.6389 119.122 26.7633 119.203 27.2212L119.311 28.0763H118.88C118.024 26.0698 116.523 25.107 114.651 25.107C112.187 25.107 110.45 26.7903 110.45 28.8506C110.45 30.379 111.628 31.5506 113.076 32.0084C114.84 32.5673 115.648 32.1969 115.648 32.8096C115.648 33.7455 111.897 32.4326 109.655 34.6006C108.827 35.375 108.396 36.8764 108.396 37.9201C108.396 40.1151 110.376 42.5524 113.587 42.5524C117.284 42.5524 118.698 40.1151 118.859 37.5497C117.331 37.3074 115.675 36.8024 114.173 38.351L113.796 38.3241C114.705 35.1393 115.883 35.5433 118.691 35.7251L120.778 35.8597C122.758 35.9944 122.866 36.0213 123.586 35.1662L123.855 35.3009C123.263 37.1188 122.731 37.5767 120.859 37.6036V37.6103Z" fill="#B1B1B1"/>
<path d="M135.78 30.8368C135.78 35.8529 139.308 41.428 145.152 41.428C147.428 41.428 149.771 40.5729 151.98 39.5158L151.616 41.7579C149.933 43.0102 146.802 44 144.061 44C137.564 44 132.353 38.9838 132.353 31.665C132.353 24.9049 137.234 19 145.152 19C147.462 19 149.933 19.4646 152.047 20.6159V21.902C152.047 22.3665 152.114 24.5077 152.148 24.9386L152.249 26.191H151.757C150.963 22.7301 148.458 21.3095 144.93 21.3095C139.126 21.3095 135.793 25.5984 135.793 30.8435L135.78 30.8368Z" fill="#B1B1B1"/>
<path d="M153.03 33.8664C153.03 28.3789 157.716 23.6455 163.278 23.6455C168.839 23.6455 172.94 27.9816 172.94 33.7654C172.94 39.5491 168.226 43.9323 162.692 43.9323C157.157 43.9323 153.03 39.6501 153.03 33.8664ZM162.665 25.6789C158.84 25.6789 155.918 28.5674 155.918 33.1459C155.918 38.3371 159.238 41.9528 163.385 41.9528C167.237 41.9528 170.159 39.0643 170.159 34.4858C170.159 29.2946 166.812 25.6789 162.665 25.6789Z" fill="#B1B1B1"/>
<path d="M176.609 42.3976C176.609 43.2796 175.916 43.926 175.081 43.926C174.246 43.926 173.552 43.2863 173.552 42.3976C173.552 41.5694 174.246 40.8691 175.081 40.8691C175.916 40.8691 176.609 41.5627 176.609 42.3976Z" fill="#B1B1B1"/>
</svg>
