<?xml version="1.0" standalone="no"?>
<!--
    Copyright (C) 2022 Dynamic Solutions

    Licensed under the Apache License, Version 2.0 (the "License");
    you may not use this file except in compliance with the License.
    You may obtain a copy of the License at

        http://www.apache.org/licenses/LICENSE-2.0

    Unless required by applicable law or agreed to in writing, software
    distributed under the License is distributed on an "AS IS" BASIS,
    WITHOUT WARRANTIES OR CONDITIONS OF ANY KIND, either express or implied.
    See the License for the specific language governing permissions and
    limitations under the License.
-->
<svg width="44" height="60" viewBox="0 0 44 60" fill="none" xmlns="http://www.w3.org/2000/svg">
<path d="M36.5275 10.2363C28.5197 -0.744567 15.4872 -0.746311 7.47755 10.2363C-2.83297 24.3726 0.71522 48.2349 14.1226 55.858C14.1226 55.858 14.1226 55.858 14.1244 55.858C19.1438 58.7114 24.8542 58.7166 29.8825 55.858C43.3236 48.2157 46.8043 24.3202 36.5275 10.2363ZM7.45801 48.7864C5.84294 46.4216 4.56012 43.72 3.63798 40.7392L7.87555 38.3325C7.82935 39.535 7.55573 46.3256 7.45801 48.7864ZM3.47807 40.2069C2.60213 37.2016 2.12596 34.0358 2.06022 30.781L7.75652 37.7775C5.166 39.247 4.87993 39.4111 3.47807 40.2069ZM36.5453 11.2119C38.1604 13.5749 39.4432 16.2783 40.3653 19.2591L36.1402 21.6587C36.2131 20.0758 36.0585 23.3272 36.5453 11.2119ZM30.0104 39.9242L32.7573 30.8351L35.4793 37.7042C32.0004 39.1161 33.5462 38.4879 30.0104 39.9242ZM32.4339 29.9991C31.5224 33.0183 30.7513 35.5699 29.3494 40.2104L22.0025 44.3814L14.6557 40.2104C13.9023 37.713 12.9855 34.6815 11.5712 29.9991C12.4649 27.041 14.0818 21.6884 14.6557 19.7879C17.2018 18.3428 19.3907 17.0985 22.0025 15.6151C24.5788 17.0776 26.7731 18.3254 29.3494 19.7879C29.9358 21.7303 31.5437 27.0532 32.4339 29.9991ZM11.2478 29.1649L8.52762 22.2992C10.7575 21.4109 4.49083 23.9345 13.9947 20.0758L11.2478 29.1649ZM22.4983 15.273L27.5478 11.5121C28.1892 14.5557 26.3698 6.04955 29.1824 19.0688L22.4983 15.273ZM21.5051 15.273L14.8191 19.0688L16.452 11.5103L21.5051 15.273ZM8.08877 22.6814L10.9884 29.9991L8.08877 37.3168L2.1313 29.9991L8.08877 22.6814ZM16.452 48.4862L14.8191 40.9277L21.5051 44.7235L16.452 48.4862ZM22.4983 44.7252L29.1824 40.9294L27.5496 48.4879L22.4983 44.7252ZM32.7573 29.1649C32.1496 27.1527 32.592 28.6187 30.0104 20.0741C36.954 22.8926 34.7685 22.0165 35.4775 22.2975C34.0667 25.856 34.1556 25.6326 32.7573 29.1649ZM35.5734 21.7478L29.8221 19.4127C29.8114 19.3638 28.0773 11.3393 28.0666 11.2852L36.0176 10.6866L35.5734 21.7478ZM22.0025 14.9641L16.6421 10.9745L22.0025 2.77378L27.3577 10.9676C25.565 12.2555 30.8597 8.36894 22.0025 14.9641ZM8.52585 37.7042C10.4678 32.8002 9.83531 34.3988 11.2478 30.8333C11.6298 32.0969 13.6251 38.7008 13.9947 39.9242C11.1501 38.7688 11.3846 38.8648 8.52585 37.7042ZM22.0025 45.0341L27.3613 49.0255L22.0025 57.2262L16.6421 49.0255L22.0025 45.0341ZM35.9163 22.6814L41.8738 29.9991L35.9146 37.3168L33.0167 29.9991C35.179 24.5418 34.5927 26.0218 35.9163 22.6814ZM27.6384 10.3951L22.5125 2.5504C24.8969 2.63242 27.2173 3.28862 29.4187 4.50329C28.9799 5.95182 28.0986 8.87156 27.6384 10.3951ZM16.3667 10.3951L14.5864 4.50329C16.7878 3.28688 19.1064 2.63242 21.4926 2.5504L16.3667 10.3951ZM15.9385 11.2852C15.8567 11.6657 14.2577 19.0688 14.183 19.4127L8.43167 21.7478L7.98926 10.6866C12.8558 11.0531 11.0986 10.9204 15.9385 11.2852ZM7.8649 21.6587L3.63798 19.2591C4.56012 16.2783 5.84294 13.5767 7.45801 11.2119C7.97149 24.0916 7.80449 20.369 7.8649 21.6587ZM3.47807 19.7931C4.88349 20.5924 5.16778 20.753 7.75652 22.2225L2.06022 29.2173C2.12596 25.9624 2.60213 22.7966 3.47807 19.7931ZM7.98748 49.3134C8.14028 45.5001 8.33572 40.6083 8.42989 38.2522C12.3352 39.8386 11.358 39.4407 14.1813 40.5873C14.2559 40.9311 15.855 48.3326 15.9367 48.7148C11.095 49.0778 12.8558 48.9469 7.98748 49.3134ZM16.3667 49.6031L21.4926 57.4461C19.1064 57.3641 16.7878 56.7079 14.5864 55.4932L16.3667 49.6031ZM27.6384 49.6031L29.4187 55.4932C27.2173 56.7096 24.8987 57.3641 22.5125 57.4461L27.6384 49.6031ZM28.0648 48.7148C28.2212 47.9923 29.6231 41.5018 29.8203 40.5873L35.5716 38.2522L36.0141 49.3134C31.1546 48.9469 32.9154 49.0796 28.0648 48.7148ZM36.1278 38.3325L40.3671 40.7392C39.445 43.72 38.1622 46.4216 36.5471 48.7864C36.4618 46.6747 36.2735 41.9835 36.1278 38.3325ZM36.2486 22.2225C38.8391 20.7512 39.1252 20.5889 40.527 19.7931C41.403 22.7966 41.8791 25.9624 41.9449 29.219C41.2768 28.3988 37.4142 23.6553 36.2486 22.2225ZM35.7884 10.1613C33.8358 10.3079 30.0548 10.5923 28.1075 10.7389L29.9073 4.78602C32.0892 6.08271 34.065 7.88901 35.7884 10.1613ZM14.096 4.78602L15.8941 10.7389C11.9639 10.4423 12.106 10.4545 8.21313 10.1613C9.93837 7.88901 11.9141 6.08271 14.096 4.78602ZM8.21491 49.8387C12.1025 49.5455 11.9568 49.5577 15.8958 49.2611L14.0978 55.214C11.9141 53.9155 9.93837 52.1093 8.21491 49.8387ZM29.9073 55.2122L28.1075 49.2593C32.075 49.5577 31.8014 49.5368 35.7884 49.837C34.065 52.1092 32.0892 53.9155 29.9073 55.2122ZM40.527 40.2069C39.1287 39.4128 40.0722 39.9486 36.2486 37.7775C42.2825 30.3674 41.3195 31.5506 41.9449 30.781C41.8791 34.0358 41.403 37.2016 40.527 40.2069Z" fill="#1D1F31" stroke="#1D1F31" stroke-width="0.25"/>
</svg>
